PathFileType	4	(X/Y/Z)	/Users/mathieubourgeois/Desktop/Analyse/Traitement/Sujet_03/Transformed_Static_Sujet_03_Tpose.trc
DataRate	CameraRate	NumFrames	NumMarkers	Units	OrigDataRate	OrigDataStartFrame	OrigNumFrames
120.000000	120.000000	4	36	mm	120.000000	30	244
Frame#	Time	RFHD			LFHD			RBHD			LBHD			C7			CLAV			RSHO			LSHO			STRN			T10			RBWT			LBWT			RFWT			LFWT			RKNI			LKNI			RKNE			LKNE			LANI			RANI			LANE			RANE			LTOE			RTOE			LHEE			RHEE			RHUM			LHUM			RRAD			LRAD			RWRA			RWRB			LWRA			LWRB			RCAR			LCAR			
		X1	Y1	Z1	X2	Y2	Z2	X3	Y3	Z3	X4	Y4	Z4	X5	Y5	Z5	X6	Y6	Z6	X7	Y7	Z7	X8	Y8	Z8	X9	Y9	Z9	X10	Y10	Z10	X11	Y11	Z11	X12	Y12	Z12	X13	Y13	Z13	X14	Y14	Z14	X15	Y15	Z15	X16	Y16	Z16	X17	Y17	Z17	X18	Y18	Z18	X19	Y19	Z19	X20	Y20	Z20	X21	Y21	Z21	X22	Y22	Z22	X23	Y23	Z23	X24	Y24	Z24	X25	Y25	Z25	X26	Y26	Z26	X27	Y27	Z27	X28	Y28	Z28	X29	Y29	Z29	X30	Y30	Z30	X31	Y31	Z31	X32	Y32	Z32	X33	Y33	Z33	X34	Y34	Z34	X35	Y35	Z35	X36	Y36	Z36	

31	0.25	-733.2950439453125	1772.90087890625	296.3511657714841	-578.0250244140625	1768.706176757812	289.1388549804686	-739.6022338867188	1734.054931640625	168.3665161132811	-591.6633911132812	1733.1484375	144.2285003662107	-653.590087890625	1575.384521484375	131.0076904296873	-650.0828247070312	1504.994140625	264.2289123535155	-806.5718383789062	1589.013427734375	156.9457244873045	-499.3085021972656	1594.859252929688	138.1978454589842	-647.077392578125	1338.415161132812	312.4713439941405	-649.7996826171875	1332.930786132812	92.3180847167967	-719.403076171875	1090.343383789062	120.0903854370116	-599.5918579101562	1089.38232421875	125.3222122192381	-790.8320922851562	1056.080810546875	282.7749633789061	-537.5609741210938	1038.951538085938	290.8087158203124	-730.4933471679688	478.716064453125	168.0727691650389	-591.1580810546875	480.177490234375	155.4494171142577	-840.2655639648438	533.36767578125	172.8688049316405	-487.1370544433594	525.3589477539062	165.0456085205077	-586.0449829101562	94.93051147460939	139.7394561767577	-729.8860473632812	98.0305633544922	160.0128021240234	-496.4348754882812	75.08911895751955	120.0150451660156	-816.5322875976562	82.29217529296876	131.0098114013671	-522.068359375	31.8104877471924	326.9272155761718	-797.517822265625	32.35359191894533	341.7326049804686	-544.04248046875	38.76056289672852	61.53170013427728	-766.7976684570312	39.30266952514649	74.05184936523428	-1094.74560546875	1492.802124023438	205.8327484130857	-201.8777618408203	1508.862060546875	214.0346374511718	-1109.274658203125	1525.165771484375	135.8967437744138	-195.68310546875	1540.780639648438	141.0890655517577	-1364.67333984375	1612.8212890625	174.9979705810544	-1372.795043945312	1551.960693359375	125.8916854858396	55.20722961425779	1604.3505859375	171.1790161132812	65.67347717285155	1533.308837890625	145.349136352539	-1472.360473632812	1599.289794921875	120.1529693603513	165.1337280273437	1578.183959960938	154.7389068603515	
32	0.2583333333333333	-733.3003540039062	1772.88232421875	296.4682617187498	-578.0449829101562	1768.693481445312	289.2751464843748	-739.5921020507812	1734.082641601562	168.4483337402342	-591.6314086914062	1733.188110351562	144.3171386718748	-653.5643920898438	1575.4091796875	131.0625762939451	-650.0762939453125	1505.003784179688	264.2705078124998	-806.5607299804688	1589.02197265625	156.974395751953	-499.2882690429688	1594.866455078125	138.2516021728514	-647.0894165039062	1338.4111328125	312.4696044921874	-649.7731323242188	1332.96826171875	92.32507324218733	-719.39794921875	1090.359375	120.037757873535	-599.5797729492188	1089.4091796875	125.2907638549803	-790.8102416992188	1056.075073242188	282.7230224609373	-537.5402221679688	1038.946533203125	290.7649536132811	-730.4923095703125	478.7131042480469	168.0231323242186	-591.1483764648438	480.18212890625	155.3749542236327	-840.2586669921875	533.364990234375	172.8056182861327	-487.1163635253906	525.3594970703125	164.9918518066405	-586.0464477539062	94.9308319091797	139.7287597656249	-729.89306640625	98.04038238525392	160.0164794921874	-496.4364624023438	75.09838867187501	120.0029907226562	-816.543212890625	82.29670715332033	131.0029907226561	-522.0632934570312	31.81651115417483	326.9209289550781	-797.517822265625	32.36038589477541	341.7278442382811	-544.0418090820312	38.75695800781251	61.53240585327142	-766.8005981445312	39.29794692993165	74.06330108642568	-1094.738159179688	1492.826049804688	205.8921966552732	-201.875732421875	1508.867919921875	214.1748809814452	-1109.260864257812	1525.177490234375	135.960266113281	-195.649658203125	1540.809448242188	141.2139587402343	-1364.661254882812	1612.839721679688	175.0528717041013	-1372.791625976562	1551.96142578125	125.9672088623044	55.22341156005857	1604.321533203125	171.3403015136718	65.6857452392578	1533.269409179688	145.5454101562499	-1472.353393554688	1599.295288085938	120.2322082519528	165.1368560791015	1578.13623046875	154.9229888916015	
33	0.2666666666666667	-733.3026123046875	1772.8525390625	296.5667419433591	-578.0307006835938	1768.676635742188	289.4011230468748	-739.5655517578125	1734.122314453125	168.5323333740232	-591.6185302734375	1733.219360351562	144.4203643798826	-653.5471801757812	1575.413452148438	131.1281127929686	-650.0810546875	1505.020751953125	264.3160095214842	-806.5585327148438	1589.028686523438	157.005889892578	-499.2555236816406	1594.86572265625	138.327667236328	-647.0911254882812	1338.405395507812	312.4688720703124	-649.74609375	1332.98779296875	92.32947540283186	-719.3749389648438	1090.361328125	119.9982528686522	-599.58349609375	1089.44970703125	125.2826385498045	-790.798828125	1056.064086914062	282.6929931640623	-537.52197265625	1038.937866210938	290.7272644042968	-730.48193359375	478.7188720703125	167.9706726074218	-591.1227416992188	480.1809692382812	155.3223724365233	-840.244384765625	533.3792114257812	172.7389068603514	-487.1083374023438	525.361572265625	164.9328002929687	-586.0330200195312	94.94276428222658	139.7353515624999	-729.8905029296875	98.04165649414064	160.0099182128905	-496.427001953125	75.0987014770508	120.0069427490234	-816.5384521484375	82.29747009277345	130.9964599609374	-522.0663452148438	31.82484054565432	326.9169616699218	-797.5252075195312	32.36841201782229	341.7282409667968	-544.0337524414062	38.76589965820313	61.53210449218744	-766.807373046875	39.30498886108399	74.04998779296865	-1094.718872070312	1492.823852539062	205.9208831787107	-201.8702850341797	1508.848388671875	214.307647705078	-1109.26220703125	1525.188232421875	136.0023651123045	-195.6282958984375	1540.772583007812	141.3234252929686	-1364.651245117188	1612.8564453125	175.1148223876951	-1372.79638671875	1551.97802734375	126.0306015014646	55.23062896728513	1604.276123046875	171.5106811523437	65.69329833984374	1533.2294921875	145.7263793945312	-1472.351684570312	1599.300659179688	120.300354003906	165.1520385742187	1578.085571289062	155.0973052978515	
34	0.275	-733.30029296875	1772.83203125	296.6658020019529	-578.0390014648438	1768.6435546875	289.5393981933592	-739.535888671875	1734.156616210938	168.6190185546873	-591.5886840820312	1733.261108398438	144.5383605957029	-653.5325927734375	1575.4384765625	131.1757354736326	-650.0734252929688	1505.037353515625	264.3584594726561	-806.551513671875	1589.041870117188	157.0534820556639	-499.236572265625	1594.871948242188	138.3663330078124	-647.0973510742188	1338.408203125	312.4993896484374	-649.7371826171875	1333.021728515625	92.33528900146467	-719.3582153320312	1090.409057617188	119.9862976074217	-599.591552734375	1089.470336914062	125.2760772705077	-790.794921875	1056.047973632812	282.6630249023436	-537.522705078125	1038.93212890625	290.6994018554686	-730.4755859375	478.7305908203125	167.9088287353514	-591.1080322265625	480.1854248046875	155.2771453857421	-840.2449951171875	533.3770751953125	172.6609954833983	-487.0918273925781	525.36865234375	164.8851776123046	-586.0267333984375	94.94549560546876	139.7300262451171	-729.883056640625	98.04734802246095	159.9925079345702	-496.4200744628906	75.0910110473633	120.0040969848632	-816.5354614257812	82.28049468994142	130.9930572509764	-522.0667724609375	31.82078170776369	326.9207153320312	-797.5316162109375	32.3700637817383	341.7257080078124	-544.0332641601562	38.76443099975587	61.53003692626947	-766.8001708984375	39.30461120605469	74.04469299316396	-1094.714233398438	1492.841796875	205.9726867675779	-201.8634338378907	1508.82861328125	214.4284210205077	-1109.249389648438	1525.197509765625	136.0167236328123	-195.6247253417969	1540.755004882812	141.4252471923827	-1364.633911132812	1612.877807617188	175.1629943847654	-1372.770263671875	1552.004516601562	126.0947799682614	55.24599456787107	1604.238891601562	171.6832580566405	65.70195007324217	1533.178588867188	145.8831024169921	-1472.3369140625	1599.341918945312	120.346008300781	165.1696624755859	1578.021240234375	155.2661132812499	
